HIERARCHY
ROOT Hips
{
  OFFSET 387.421 88.6843 214.036
  CHANNELS 6 Xposition Yposition Zposition Zrotation Xrotation Yrotation
  JOINT RightUpLeg
  {
    OFFSET -9.26436 -1.54477 -0.00764244
    CHANNELS 6 Xposition Yposition Zposition Zrotation Xrotation Yrotation
    JOINT RightLeg
    {
      OFFSET 0.0270022 -41.8848 0.0384645
      CHANNELS 6 Xposition Yposition Zposition Zrotation Xrotation Yrotation
      JOINT RightFoot
      {
        OFFSET -0.025595 -42.7341 0.117519
        CHANNELS 6 Xposition Yposition Zposition Zrotation Xrotation Yrotation
        End Site
        {
          OFFSET 0 -7.69 17.5
        }
      }
    }
  }
  JOINT LeftUpLeg
  {
    OFFSET 9.28281 -1.63184 0.00655276
    CHANNELS 6 Xposition Yposition Zposition Zrotation Xrotation Yrotation
    JOINT LeftLeg
    {
      OFFSET 0.00578543 -41.8941 0.0117795
      CHANNELS 6 Xposition Yposition Zposition Zrotation Xrotation Yrotation
      JOINT LeftFoot
      {
        OFFSET 0.253805 -40.8902 0.809143
        CHANNELS 6 Xposition Yposition Zposition Zrotation Xrotation Yrotation
        End Site
        {
          OFFSET 0 -7.69 17.5
        }
      }
    }
  }
  JOINT Spine
  {
    OFFSET 0.0394198 14.2977 0.0482998
    CHANNELS 6 Xposition Yposition Zposition Zrotation Xrotation Yrotation
    JOINT Spine1
    {
      OFFSET 0.0185445 9.7211 0.00403905
      CHANNELS 6 Xposition Yposition Zposition Zrotation Xrotation Yrotation
      JOINT Spine2
      {
        OFFSET 0.0372782 10.12 -0.00275739
        CHANNELS 6 Xposition Yposition Zposition Zrotation Xrotation Yrotation
        JOINT Spine3
        {
          OFFSET 0.0364147 9.71545 0.000223414
          CHANNELS 6 Xposition Yposition Zposition Zrotation Xrotation Yrotation
          JOINT Neck
          {
            OFFSET 0.0404691 10.3836 0.0270997
            CHANNELS 6 Xposition Yposition Zposition Zrotation Xrotation Yrotation
            JOINT Head
            {
              OFFSET 0.0380418 9.46716 0.0275485
              CHANNELS 6 Xposition Yposition Zposition Zrotation Xrotation Yrotation
              End Site
              {
                OFFSET 0 15.95 0
              }
            }
          }
          JOINT RightShoulder
          {
            OFFSET -3.18046 6.93005 -0.001272
            CHANNELS 6 Xposition Yposition Zposition Zrotation Xrotation Yrotation
            JOINT RightArm
            {
              OFFSET -12.7905 0.0116363 0.0171043
              CHANNELS 6 Xposition Yposition Zposition Zrotation Xrotation Yrotation
              JOINT RightForeArm
              {
                OFFSET -26.5166 -0.00474565 0.042073
                CHANNELS 6 Xposition Yposition Zposition Zrotation Xrotation Yrotation
                JOINT RightHand
                {
                  OFFSET -25.9858 -0.0984063 0.163753
                  CHANNELS 6 Xposition Yposition Zposition Zrotation Xrotation Yrotation
                  JOINT RightHandThumb1
                  {
                    OFFSET -2.48905 0.190105 3.12053
                    CHANNELS 6 Xposition Yposition Zposition Zrotation Xrotation Yrotation
                    JOINT RightHandThumb2
                    {
                      OFFSET -3.68274 0 0
                      CHANNELS 6 Xposition Yposition Zposition Zrotation Xrotation Yrotation
                      JOINT RightHandThumb3
                      {
                        OFFSET -2.55832 0 0
                        CHANNELS 6 Xposition Yposition Zposition Zrotation Xrotation Yrotation
                        End Site
                        {
                          OFFSET -2.194 0 0
                        }
                      }
                    }
                  }
                  JOINT RightInHandIndex
                  {
                    OFFSET -3.22368 0.508421 1.97842
                    CHANNELS 6 Xposition Yposition Zposition Zrotation Xrotation Yrotation
                    JOINT RightHandIndex1
                    {
                      OFFSET -5.21684 -0.091368 0.999158
                      CHANNELS 6 Xposition Yposition Zposition Zrotation Xrotation Yrotation
                      JOINT RightHandIndex2
                      {
                        OFFSET -3.61937 0 0
                        CHANNELS 6 Xposition Yposition Zposition Zrotation Xrotation Yrotation
                        JOINT RightHandIndex3
                        {
                          OFFSET -2.0521 0 0
                          CHANNELS 6 Xposition Yposition Zposition Zrotation Xrotation Yrotation
                          End Site
                          {
                            OFFSET -1.805 0 0
                          }
                        }
                      }
                    }
                  }
                  JOINT RightInHandMiddle
                  {
                    OFFSET -3.38211 0.517263 0.756737
                    CHANNELS 6 Xposition Yposition Zposition Zrotation Xrotation Yrotation
                    JOINT RightHandMiddle1
                    {
                      OFFSET -5.17411 -0.084 0.313895
                      CHANNELS 6 Xposition Yposition Zposition Zrotation Xrotation Yrotation
                      JOINT RightHandMiddle2
                      {
                        OFFSET -3.94947 0 0
                        CHANNELS 6 Xposition Yposition Zposition Zrotation Xrotation Yrotation
                        JOINT RightHandMiddle3
                        {
                          OFFSET -2.47579 0 0
                          CHANNELS 6 Xposition Yposition Zposition Zrotation Xrotation Yrotation
                          End Site
                          {
                            OFFSET -1.975 0 0
                          }
                        }
                      }
                    }
                  }
                  JOINT RightInHandRing
                  {
                    OFFSET -3.36516 0.537895 -0.128947
                    CHANNELS 6 Xposition Yposition Zposition Zrotation Xrotation Yrotation
                    JOINT RightHandRing1
                    {
                      OFFSET -4.63474 -0.022105 -0.478947
                      CHANNELS 6 Xposition Yposition Zposition Zrotation Xrotation Yrotation
                      JOINT RightHandRing2
                      {
                        OFFSET -3.44238 0 0
                        CHANNELS 6 Xposition Yposition Zposition Zrotation Xrotation Yrotation
                        JOINT RightHandRing3
                        {
                          OFFSET -2.3881 0 0
                          CHANNELS 6 Xposition Yposition Zposition Zrotation Xrotation Yrotation
                          End Site
                          {
                            OFFSET -1.857 0 0
                          }
                        }
                      }
                    }
                  }
                  JOINT RightInHandPinky
                  {
                    OFFSET -3.16105 0.469368 -1.20179
                    CHANNELS 6 Xposition Yposition Zposition Zrotation Xrotation Yrotation
                    JOINT RightHandPinky1
                    {
                      OFFSET -4.14105 -0.022105 -1.09053
                      CHANNELS 6 Xposition Yposition Zposition Zrotation Xrotation Yrotation
                      JOINT RightHandPinky2
                      {
                        OFFSET -2.75653 0 0
                        CHANNELS 6 Xposition Yposition Zposition Zrotation Xrotation Yrotation
                        JOINT RightHandPinky3
                        {
                          OFFSET -1.74189 0 0
                          CHANNELS 6 Xposition Yposition Zposition Zrotation Xrotation Yrotation
                          End Site
                          {
                            OFFSET -1.645 0 0
                          }
                        }
                      }
                    }
                  }
                }
              }
            }
          }
          JOINT LeftShoulder
          {
            OFFSET 3.22994 6.91218 -0.0101458
            CHANNELS 6 Xposition Yposition Zposition Zrotation Xrotation Yrotation
            JOINT LeftArm
            {
              OFFSET 12.815 -0.0554782 -0.0520121
              CHANNELS 6 Xposition Yposition Zposition Zrotation Xrotation Yrotation
              JOINT LeftForeArm
              {
                OFFSET 26.5031 -0.0658343 -0.024575
                CHANNELS 6 Xposition Yposition Zposition Zrotation Xrotation Yrotation
                JOINT LeftHand
                {
                  OFFSET 25.9873 -0.0450233 -0.0175433
                  CHANNELS 6 Xposition Yposition Zposition Zrotation Xrotation Yrotation
                  JOINT LeftHandThumb1
                  {
                    OFFSET 2.48905 0.190105 3.12053
                    CHANNELS 6 Xposition Yposition Zposition Zrotation Xrotation Yrotation
                    JOINT LeftHandThumb2
                    {
                      OFFSET 3.68274 0 0
                      CHANNELS 6 Xposition Yposition Zposition Zrotation Xrotation Yrotation
                      JOINT LeftHandThumb3
                      {
                        OFFSET 2.55832 0 0
                        CHANNELS 6 Xposition Yposition Zposition Zrotation Xrotation Yrotation
                        End Site
                        {
                          OFFSET 2.194 0 0
                        }
                      }
                    }
                  }
                  JOINT LeftInHandIndex
                  {
                    OFFSET 3.22368 0.508421 1.97842
                    CHANNELS 6 Xposition Yposition Zposition Zrotation Xrotation Yrotation
                    JOINT LeftHandIndex1
                    {
                      OFFSET 5.21684 -0.091368 0.999158
                      CHANNELS 6 Xposition Yposition Zposition Zrotation Xrotation Yrotation
                      JOINT LeftHandIndex2
                      {
                        OFFSET 3.61937 0 0
                        CHANNELS 6 Xposition Yposition Zposition Zrotation Xrotation Yrotation
                        JOINT LeftHandIndex3
                        {
                          OFFSET 2.0521 0 0
                          CHANNELS 6 Xposition Yposition Zposition Zrotation Xrotation Yrotation
                          End Site
                          {
                            OFFSET 1.805 0 0
                          }
                        }
                      }
                    }
                  }
                  JOINT LeftInHandMiddle
                  {
                    OFFSET 3.38211 0.517263 0.756737
                    CHANNELS 6 Xposition Yposition Zposition Zrotation Xrotation Yrotation
                    JOINT LeftHandMiddle1
                    {
                      OFFSET 5.17411 -0.084 0.313895
                      CHANNELS 6 Xposition Yposition Zposition Zrotation Xrotation Yrotation
                      JOINT LeftHandMiddle2
                      {
                        OFFSET 3.94947 0 0
                        CHANNELS 6 Xposition Yposition Zposition Zrotation Xrotation Yrotation
                        JOINT LeftHandMiddle3
                        {
                          OFFSET 2.47579 0 0
                          CHANNELS 6 Xposition Yposition Zposition Zrotation Xrotation Yrotation
                          End Site
                          {
                            OFFSET 1.975 0 0
                          }
                        }
                      }
                    }
                  }
                  JOINT LeftInHandRing
                  {
                    OFFSET 3.36516 0.537895 -0.128947
                    CHANNELS 6 Xposition Yposition Zposition Zrotation Xrotation Yrotation
                    JOINT LeftHandRing1
                    {
                      OFFSET 4.63474 -0.022105 -0.478947
                      CHANNELS 6 Xposition Yposition Zposition Zrotation Xrotation Yrotation
                      JOINT LeftHandRing2
                      {
                        OFFSET 3.44238 0 0
                        CHANNELS 6 Xposition Yposition Zposition Zrotation Xrotation Yrotation
                        JOINT LeftHandRing3
                        {
                          OFFSET 2.3881 0 0
                          CHANNELS 6 Xposition Yposition Zposition Zrotation Xrotation Yrotation
                          End Site
                          {
                            OFFSET 1.857 0 0
                          }
                        }
                      }
                    }
                  }
                  JOINT LeftInHandPinky
                  {
                    OFFSET 3.16105 0.469368 -1.20179
                    CHANNELS 6 Xposition Yposition Zposition Zrotation Xrotation Yrotation
                    JOINT LeftHandPinky1
                    {
                      OFFSET 4.14105 -0.022105 -1.09053
                      CHANNELS 6 Xposition Yposition Zposition Zrotation Xrotation Yrotation
                      JOINT LeftHandPinky2
                      {
                        OFFSET 2.75653 0 0
                        CHANNELS 6 Xposition Yposition Zposition Zrotation Xrotation Yrotation
                        JOINT LeftHandPinky3
                        {
                          OFFSET 1.74189 0 0
                          CHANNELS 6 Xposition Yposition Zposition Zrotation Xrotation Yrotation
                          End Site
                          {
                            OFFSET 1.645 0 0
                          }
                        }
                      }
                    }
                  }
                }
              }
            }
          }
        }
      }
    }
  }
}
MOTION
Frames:	3
Frame Time:	0.00833333
387.421 88.6843 214.036 28.8744 16.0294 -66.3646 -9.26436 -1.54477 -0.00764244 -13.4667 -62.3175 -13.7027 0.0270022 -41.8848 0.0384645 -1.18928 28.8769 -17.1995 -0.025595 -42.7341 0.117519 7.05943 2.09391 25.3643 9.28281 -1.63184 0.00655276 8.91389 -55.7901 -2.55226 0.00578543 -41.8941 0.0117795 7.46872 32.2968 -3.39117 0.253805 -40.8902 0.809143 -11.5844 -9.18734 -18.558 0.0394198 14.2977 0.0482998 -8.83807 11.4627 16.7321 0.0185445 9.7211 0.00403905 -1.89718 3.18263 3.99862 0.0372782 10.12 -0.00275739 -3.16741 5.19155 6.47147 0.0364147 9.71545 0.000223414 0.0803767 -0.609512 -0.528006 0.0404691 10.3836 0.0270997 0.0808998 -0.611227 -0.527745 0.0380418 9.46716 0.0275485 0.620799 -11.3283 -9.26894 -3.18046 6.93005 -0.001272 0.0727693 -14.4154 24.4642 -12.7905 0.0116363 0.0171043 67.219 -0.712017 52.2969 -26.5166 -0.00474565 0.042073 27.6337 -60.7911 12.3796 -25.9858 -0.0984063 0.163753 23.1481 -27.0536 -16.967 -2.48905 0.190105 3.12053 28.184 10.7294 19.1592 -3.68274 -7.10543e-15 5.68434e-14 -2.77396e-15 2.5842e-15 -10 -2.55832 0 5.68434e-14 -1.36896e-14 -4.37326e-15 -10 -3.22368 0.508421 1.97842 3.18055e-15 -3.18055e-15 -3.18055e-15 -5.21684 -0.091368 0.999158 19.9818 0.871897 2.3964 -3.61937 -2.84217e-14 0 24 -1.11816e-14 3.18055e-15 -2.0521 2.84217e-14 0 20 -9.54166e-15 -4.77083e-14 -3.38211 0.517263 0.756737 3.18055e-15 -3.18055e-15 -3.18055e-15 -5.17411 -0.084 0.313895 20 -3.18055e-15 1.27222e-14 -3.94947 1.42109e-14 -5.68434e-14 24 -8.94531e-16 6.36111e-15 -2.47579 -2.84217e-14 5.68434e-14 20 -4.77083e-15 -3.18055e-14 -3.36516 0.537895 -0.128947 3.18055e-15 -3.18055e-15 -3.18055e-15 -4.63474 -0.022105 -0.478947 19.9748 -1.02565 -2.81938 -3.44238 1.42109e-14 -5.68434e-14 24 -4.17448e-15 -0 -2.3881 0 0 20 -4.77083e-15 -2.8625e-14 -3.16105 0.469368 -1.20179 3.18055e-15 -3.18055e-15 -3.18055e-15 -4.14105 -0.022105 -1.09053 19.7815 -3.00948 -8.30515 -2.75653 -1.42109e-14 0 24 0 -0 -1.74189 0 5.68434e-14 20 7.95139e-16 -1.27222e-14 3.22994 6.91218 -0.0101458 14.1749 -12.6507 -28.668 12.815 -0.0554782 -0.0520121 -33.2993 29.3131 -72.7232 26.5031 -0.0658343 -0.024575 12.2609 -58.287 14.5884 25.9873 -0.0450233 -0.0175433 -23.2817 -25.0056 8.81699 2.48905 0.190105 3.12053 -28.184 10.7294 -19.1592 3.68274 0 0 8.56722e-15 6.36111e-15 10 2.55832 0 0 1.02497e-14 -3.18055e-15 10 3.22368 0.508421 1.97842 0 3.18055e-15 -0 5.21684 -0.091368 0.999158 -19.9818 0.871897 -2.3964 3.61937 5.68434e-14 0 -24 -4.77083e-15 -6.36111e-15 2.0521 0 0 -20 -1.98785e-15 1.27222e-14 3.38211 0.517263 0.756737 0 3.18055e-15 -0 5.17411 -0.084 0.313895 -20 6.36111e-15 -6.36111e-15 3.94947 -5.68434e-14 1.13687e-13 -24 4.77083e-15 -0 2.47579 2.84217e-14 -5.68434e-14 -20 -3.97569e-15 1.27222e-14 3.36516 0.537895 -0.128947 0 3.18055e-15 -0 4.63474 -0.022105 -0.478947 -19.9748 -1.02565 2.81938 3.44238 0 0 -24 -7.95139e-16 -0 2.3881 2.84217e-14 -2.84217e-14 -20 -3.18055e-15 1.27222e-14 3.16105 0.469368 -1.20179 0 3.18055e-15 -0 4.14105 -0.022105 -1.09053 -19.7815 -3.00948 8.30515 2.75653 -5.68434e-14 0 -24 6.36111e-15 1.27222e-14 1.74189 -2.84217e-14 0 -20 7.95139e-16 -6.36111e-15 
387.404 88.6728 214.033 28.8844 15.9636 -66.4374 -9.26427 -1.54404 -0.0105418 -13.3974 -62.3398 -13.6421 0.0265508 -41.8862 0.0388131 -1.22056 28.8319 -17.1175 -0.049869 -42.7283 0.0634477 7.01633 2.17561 25.3657 9.28139 -1.63806 0.00613258 9.09623 -55.7679 -2.34098 0.00150779 -41.894 0.000549569 7.31599 32.4362 -3.24547 0.23984 -40.8743 0.878424 -11.5546 -9.29662 -18.6671 0.0393162 14.2976 0.0488779 -8.84514 11.436 16.7473 0.0186173 9.72109 0.00415945 -1.89734 3.17677 4.00255 0.0374393 10.1199 -0.00361653 -3.17121 5.18253 6.47711 0.0365769 9.71546 -0.000266973 0.0774193 -0.60607 -0.527744 0.0437972 10.3834 0.0295275 0.0779355 -0.607793 -0.527466 0.0431994 9.46713 0.0286485 0.559408 -11.2695 -9.27478 -3.18021 6.93665 -0.00127465 0.316975 -14.2578 24.4524 -12.7906 0.0237324 0.017678 67.0478 -0.640121 52.158 -26.5167 -0.00922086 0.0452778 29.0504 -61.1687 14.0341 -25.9857 -0.121622 0.183213 22.7841 -26.693 -17.1913 -2.48905 0.190105 3.12053 28.184 10.7294 19.1592 -3.68274 7.10543e-15 -5.68434e-14 1.21799e-14 4.96962e-15 -10 -2.55832 7.10543e-15 0 8.42456e-15 1.98785e-15 -10 -3.22368 0.508421 1.97842 0 0 -3.18055e-15 -5.21684 -0.091368 0.999158 19.9818 0.871897 2.3964 -3.61937 -2.84217e-14 0 24 -6.11263e-15 2.22639e-14 -2.0521 -2.84217e-14 0 20 2.38542e-15 6.36111e-15 -3.38211 0.517263 0.756737 0 0 -3.18055e-15 -5.17411 -0.084 0.313895 20 -3.18055e-15 2.22639e-14 -3.94947 1.42109e-14 5.68434e-14 24 1.49089e-15 1.59028e-14 -2.47579 2.84217e-14 2.84217e-14 20 -3.18055e-15 2.22639e-14 -3.36516 0.537895 -0.128947 0 0 -3.18055e-15 -4.63474 -0.022105 -0.478947 19.9748 -1.02565 -2.81938 -3.44238 1.42109e-14 0 24 5.56597e-15 1.27222e-14 -2.3881 -2.84217e-14 0 20 -7.15625e-15 9.54166e-15 -3.16105 0.469368 -1.20179 0 0 -3.18055e-15 -4.14105 -0.022105 -1.09053 19.7815 -3.00948 -8.30515 -2.75653 -1.42109e-14 -5.68434e-14 24 -6.36111e-15 9.54166e-15 -1.74189 -2.84217e-14 5.68434e-14 20 2.38542e-15 1.27222e-14 3.23085 6.91204 -0.0106114 14.085 -12.6735 -28.6414 12.8199 -0.0398719 -0.0436948 -33.2816 29.3773 -72.7161 26.5031 -0.0500788 -0.0241832 12.2819 -57.2767 14.5405 25.987 -0.0451968 -0.01688 -22.9528 -25.0436 8.85489 2.48905 0.190105 3.12053 -28.184 10.7294 -19.1592 3.68274 2.84217e-14 2.84217e-14 4.91207e-15 -9.54166e-15 10 2.55832 0 -2.84217e-14 1.68245e-15 -9.54166e-15 10 3.22368 0.508421 1.97842 3.18055e-15 0 4.77083e-15 5.21684 -0.091368 0.999158 -19.9818 0.871897 -2.3964 3.61937 -5.68434e-14 5.68434e-14 -24 3.18055e-15 -6.36111e-15 2.0521 2.84217e-14 5.68434e-14 -20 2.38542e-15 -1.27222e-14 3.38211 0.517263 0.756737 3.18055e-15 0 4.77083e-15 5.17411 -0.084 0.313895 -20 9.54166e-15 -9.54166e-15 3.94947 0 -2.84217e-14 -24 3.18055e-15 -2.54444e-14 2.47579 0 -5.68434e-14 -20 -3.57812e-15 -1.59028e-14 3.36516 0.537895 -0.128947 3.18055e-15 0 4.77083e-15 4.63474 -0.022105 -0.478947 -19.9748 -1.02565 2.81938 3.44238 5.68434e-14 -2.84217e-14 -24 1.59028e-15 -2.22639e-14 2.3881 0 -5.68434e-14 -20 6.75868e-15 -2.8625e-14 3.16105 0.469368 -1.20179 3.18055e-15 0 4.77083e-15 4.14105 -0.022105 -1.09053 -19.7815 -3.00948 8.30515 2.75653 0 2.84217e-14 -24 3.97569e-15 -3.18055e-14 1.74189 2.84217e-14 2.84217e-14 -20 -1.59028e-15 -2.8625e-14 
387.391 88.6603 214.024 28.8912 15.8983 -66.5179 -9.2642 -1.54333 -0.0136835 -13.3183 -62.3682 -13.5735 0.0260978 -41.8871 0.0384488 -1.25445 28.781 -17.0384 -0.0724282 -42.7244 0.00966541 6.97078 2.26956 25.3709 9.28058 -1.64194 0.00573831 9.25407 -55.7484 -2.16927 -0.00133996 -41.8939 -0.00842 7.15876 32.5796 -3.09352 0.255486 -40.8655 0.939481 -11.5077 -9.40636 -18.7506 0.0392269 14.2976 0.0493745 -8.85354 11.4075 16.7757 0.0186923 9.72108 0.00428565 -1.89776 3.17078 4.01 0.0375981 10.1199 -0.00447096 -3.17411 5.17333 6.48827 0.0367371 9.71546 -0.000757225 0.0739288 -0.602448 -0.527476 0.0476185 10.3833 0.0320322 0.0744304 -0.604179 -0.527181 0.046816 9.46711 0.0291763 0.49343 -11.1965 -9.29679 -3.17996 6.94283 -0.0012771 0.520493 -14.0962 24.4437 -12.7906 0.0372496 0.0182441 66.9781 -0.682301 52.0147 -26.5167 -0.00914493 0.0456338 30.7289 -61.427 15.9257 -25.9862 -0.122884 0.180536 22.419 -26.3917 -17.3005 -2.48905 0.190105 3.12053 28.184 10.7294 19.1592 -3.68274 0 0 -2.52614e-15 -5.1684e-15 -10 -2.55832 2.13163e-14 0 -1.33194e-15 -7.55382e-15 -10 -3.22368 0.508421 1.97842 3.18055e-15 9.54166e-15 -6.36111e-15 -5.21684 -0.091368 0.999158 19.9818 0.871897 2.3964 -3.61937 -1.42109e-14 2.84217e-14 24 1.00014e-15 -3.18055e-15 -2.0521 -2.84217e-14 0 20 -3.97569e-15 -1.27222e-14 -3.38211 0.517263 0.756737 3.18055e-15 9.54166e-15 -6.36111e-15 -5.17411 -0.084 0.313895 20 -4.77083e-15 -9.54166e-15 -3.94947 1.42109e-14 2.84217e-14 24 9.93923e-17 -6.36111e-15 -2.47579 2.84217e-14 0 20 -5.56597e-15 -1.27222e-14 -3.36516 0.537895 -0.128947 3.18055e-15 9.54166e-15 -6.36111e-15 -4.63474 -0.022105 -0.478947 19.9748 -1.02565 -2.81938 -3.44238 0 2.84217e-14 24 -3.67752e-15 -3.18055e-15 -2.3881 0 -2.84217e-14 20 8.74653e-15 -1.59028e-14 -3.16105 0.469368 -1.20179 3.18055e-15 9.54166e-15 -6.36111e-15 -4.14105 -0.022105 -1.09053 19.7815 -3.00948 -8.30515 -2.75653 0 0 24 5.96354e-16 -1.27222e-14 -1.74189 -2.84217e-14 8.52651e-14 20 -3.97569e-15 -3.18055e-15 3.23177 6.9119 -0.0119143 14.0275 -12.6943 -28.6293 12.8241 -0.0133525 -0.0271799 -33.3453 29.4709 -72.6586 26.5031 -0.0223361 -0.0244543 12.3745 -56.176 14.457 25.9866 -0.0455549 -0.0162523 -22.5863 -25.0721 8.92893 2.48905 0.190105 3.12053 -28.184 10.7294 -19.1592 3.68274 2.84217e-14 -2.84217e-14 -3.79044e-15 3.18055e-15 10 2.55832 0 0 8.56722e-15 6.36111e-15 10 3.22368 0.508421 1.97842 3.18055e-15 9.54166e-15 1.59028e-15 5.21684 -0.091368 0.999158 -19.9818 0.871897 -2.3964 3.61937 0 -2.84217e-14 -24 -1.59028e-15 -0 2.0521 -2.84217e-14 5.68434e-14 -20 -6.95746e-16 9.54166e-15 3.38211 0.517263 0.756737 3.18055e-15 9.54166e-15 1.59028e-15 5.17411 -0.084 0.313895 -20 3.18055e-15 -0 3.94947 0 -8.52651e-14 -24 6.36111e-15 9.54166e-15 2.47579 0 2.84217e-14 -20 3.97569e-16 2.22639e-14 3.36516 0.537895 -0.128947 3.18055e-15 9.54166e-15 1.59028e-15 4.63474 -0.022105 -0.478947 -19.9748 -1.02565 2.81938 3.44238 0 2.84217e-14 -24 1.59028e-15 -0 2.3881 2.84217e-14 -5.68434e-14 -20 -1.98785e-15 6.36111e-15 3.16105 0.469368 -1.20179 3.18055e-15 9.54166e-15 1.59028e-15 4.14105 -0.022105 -1.09053 -19.7815 -3.00948 8.30515 2.75653 0 -2.84217e-14 -24 5.56597e-15 -3.18055e-15 1.74189 2.84217e-14 0 -20 -7.15625e-15 -3.18055e-15 
